<mxfile host="app.diagrams.net" agent="Mozilla/5.0 (Windows NT 10.0; Win64; x64) AppleWebKit/537.36 (KHTML, like Gecko) Chrome/128.0.0.0 Safari/537.36" version="24.7.6">
  <diagram name="PÃ¡gina-1" id="XERevIFsAHX4DDxvJxri">
    <mxGraphModel dx="2442" dy="2038" grid="1" gridSize="10" guides="1" tooltips="1" connect="1" arrows="1" fold="1" page="1" pageScale="1" pageWidth="827" pageHeight="1169" math="0" shadow="0">
      <root>
        <mxCell id="0" />
        <mxCell id="1" parent="0" />
        <mxCell id="SqjKZSaL8NwDpM86Zb0R-29" value="modalidades&amp;nbsp;" style="rounded=0;whiteSpace=wrap;html=1;" vertex="1" parent="1">
          <mxGeometry x="90" y="190" width="90" height="40" as="geometry" />
        </mxCell>
        <mxCell id="SqjKZSaL8NwDpM86Zb0R-30" value="equipes" style="rounded=0;whiteSpace=wrap;html=1;" vertex="1" parent="1">
          <mxGeometry x="270" y="190" width="80" height="40" as="geometry" />
        </mxCell>
        <mxCell id="SqjKZSaL8NwDpM86Zb0R-32" value="jogadores_1a&amp;nbsp;" style="rounded=0;whiteSpace=wrap;html=1;" vertex="1" parent="1">
          <mxGeometry x="593" y="350" width="80" height="40" as="geometry" />
        </mxCell>
        <mxCell id="SqjKZSaL8NwDpM86Zb0R-34" value="destaques&amp;nbsp;" style="rounded=0;whiteSpace=wrap;html=1;" vertex="1" parent="1">
          <mxGeometry x="135" y="105" width="80" height="40" as="geometry" />
        </mxCell>
        <mxCell id="SqjKZSaL8NwDpM86Zb0R-35" value="jogos&amp;nbsp;" style="rounded=0;whiteSpace=wrap;html=1;" vertex="1" parent="1">
          <mxGeometry x="250" y="-15" width="80" height="40" as="geometry" />
        </mxCell>
        <mxCell id="SqjKZSaL8NwDpM86Zb0R-36" value="jogadores_2a&amp;nbsp;" style="rounded=0;whiteSpace=wrap;html=1;" vertex="1" parent="1">
          <mxGeometry x="384" y="-100" width="80" height="40" as="geometry" />
        </mxCell>
        <mxCell id="SqjKZSaL8NwDpM86Zb0R-37" value="jogadores_9a&amp;nbsp;" style="rounded=0;whiteSpace=wrap;html=1;" vertex="1" parent="1">
          <mxGeometry x="520" y="35" width="80" height="40" as="geometry" />
        </mxCell>
        <mxCell id="SqjKZSaL8NwDpM86Zb0R-38" value="jogadores_9b&amp;nbsp;" style="rounded=0;whiteSpace=wrap;html=1;" vertex="1" parent="1">
          <mxGeometry x="700" y="170" width="80" height="40" as="geometry" />
        </mxCell>
        <mxCell id="SqjKZSaL8NwDpM86Zb0R-41" value="nome" style="ellipse;whiteSpace=wrap;html=1;" vertex="1" parent="1">
          <mxGeometry x="20" y="260" width="50" height="30" as="geometry" />
        </mxCell>
        <mxCell id="SqjKZSaL8NwDpM86Zb0R-42" value="id" style="ellipse;whiteSpace=wrap;html=1;" vertex="1" parent="1">
          <mxGeometry x="90" y="290" width="50" height="30" as="geometry" />
        </mxCell>
        <mxCell id="SqjKZSaL8NwDpM86Zb0R-44" value="" style="endArrow=none;html=1;rounded=0;exitX=1;exitY=0;exitDx=0;exitDy=0;" edge="1" parent="1" source="SqjKZSaL8NwDpM86Zb0R-41">
          <mxGeometry width="50" height="50" relative="1" as="geometry">
            <mxPoint x="60" y="280" as="sourcePoint" />
            <mxPoint x="110" y="230" as="targetPoint" />
          </mxGeometry>
        </mxCell>
        <mxCell id="SqjKZSaL8NwDpM86Zb0R-45" value="" style="endArrow=none;html=1;rounded=0;exitX=0.5;exitY=0;exitDx=0;exitDy=0;" edge="1" parent="1" source="SqjKZSaL8NwDpM86Zb0R-42">
          <mxGeometry width="50" height="50" relative="1" as="geometry">
            <mxPoint x="91.5" y="265" as="sourcePoint" />
            <mxPoint x="138.5" y="230" as="targetPoint" />
          </mxGeometry>
        </mxCell>
        <mxCell id="SqjKZSaL8NwDpM86Zb0R-46" value="possui" style="rhombus;whiteSpace=wrap;html=1;" vertex="1" parent="1">
          <mxGeometry x="200" y="195" width="50" height="30" as="geometry" />
        </mxCell>
        <mxCell id="SqjKZSaL8NwDpM86Zb0R-48" value="" style="endArrow=none;html=1;rounded=0;exitX=1;exitY=0.5;exitDx=0;exitDy=0;entryX=0;entryY=0.5;entryDx=0;entryDy=0;" edge="1" parent="1" source="SqjKZSaL8NwDpM86Zb0R-29" target="SqjKZSaL8NwDpM86Zb0R-46">
          <mxGeometry width="50" height="50" relative="1" as="geometry">
            <mxPoint x="370" y="330" as="sourcePoint" />
            <mxPoint x="420" y="280" as="targetPoint" />
          </mxGeometry>
        </mxCell>
        <mxCell id="SqjKZSaL8NwDpM86Zb0R-49" value="" style="endArrow=none;html=1;rounded=0;exitX=1;exitY=0.5;exitDx=0;exitDy=0;entryX=0;entryY=0.5;entryDx=0;entryDy=0;" edge="1" parent="1">
          <mxGeometry width="50" height="50" relative="1" as="geometry">
            <mxPoint x="250" y="210" as="sourcePoint" />
            <mxPoint x="270" y="210" as="targetPoint" />
          </mxGeometry>
        </mxCell>
        <mxCell id="SqjKZSaL8NwDpM86Zb0R-50" value="1" style="text;html=1;align=center;verticalAlign=middle;whiteSpace=wrap;rounded=0;" vertex="1" parent="1">
          <mxGeometry x="160" y="190" width="60" height="30" as="geometry" />
        </mxCell>
        <mxCell id="SqjKZSaL8NwDpM86Zb0R-51" value="n" style="text;html=1;align=center;verticalAlign=middle;whiteSpace=wrap;rounded=0;" vertex="1" parent="1">
          <mxGeometry x="230" y="190" width="60" height="30" as="geometry" />
        </mxCell>
        <mxCell id="SqjKZSaL8NwDpM86Zb0R-52" value="id" style="ellipse;whiteSpace=wrap;html=1;" vertex="1" parent="1">
          <mxGeometry x="220" y="280" width="50" height="30" as="geometry" />
        </mxCell>
        <mxCell id="SqjKZSaL8NwDpM86Zb0R-53" value="serie" style="ellipse;whiteSpace=wrap;html=1;" vertex="1" parent="1">
          <mxGeometry x="280" y="300" width="50" height="30" as="geometry" />
        </mxCell>
        <mxCell id="SqjKZSaL8NwDpM86Zb0R-54" value="modalidades_jogadas" style="ellipse;whiteSpace=wrap;html=1;" vertex="1" parent="1">
          <mxGeometry x="324" y="270" width="130" height="40" as="geometry" />
        </mxCell>
        <mxCell id="SqjKZSaL8NwDpM86Zb0R-56" value="" style="endArrow=none;html=1;rounded=0;exitX=0.651;exitY=-0.016;exitDx=0;exitDy=0;exitPerimeter=0;entryX=0.5;entryY=1;entryDx=0;entryDy=0;" edge="1" parent="1" source="SqjKZSaL8NwDpM86Zb0R-52" target="SqjKZSaL8NwDpM86Zb0R-30">
          <mxGeometry width="50" height="50" relative="1" as="geometry">
            <mxPoint x="240" y="280" as="sourcePoint" />
            <mxPoint x="290" y="230" as="targetPoint" />
          </mxGeometry>
        </mxCell>
        <mxCell id="SqjKZSaL8NwDpM86Zb0R-57" value="" style="endArrow=none;html=1;rounded=0;exitX=0.5;exitY=0;exitDx=0;exitDy=0;entryX=0.5;entryY=1;entryDx=0;entryDy=0;" edge="1" parent="1" source="SqjKZSaL8NwDpM86Zb0R-53" target="SqjKZSaL8NwDpM86Zb0R-30">
          <mxGeometry width="50" height="50" relative="1" as="geometry">
            <mxPoint x="300" y="300" as="sourcePoint" />
            <mxPoint x="357" y="250" as="targetPoint" />
          </mxGeometry>
        </mxCell>
        <mxCell id="SqjKZSaL8NwDpM86Zb0R-58" value="" style="endArrow=none;html=1;rounded=0;exitX=0.5;exitY=0;exitDx=0;exitDy=0;entryX=0.5;entryY=1;entryDx=0;entryDy=0;" edge="1" parent="1" source="SqjKZSaL8NwDpM86Zb0R-54" target="SqjKZSaL8NwDpM86Zb0R-30">
          <mxGeometry width="50" height="50" relative="1" as="geometry">
            <mxPoint x="380" y="270" as="sourcePoint" />
            <mxPoint x="385" y="200" as="targetPoint" />
          </mxGeometry>
        </mxCell>
        <mxCell id="SqjKZSaL8NwDpM86Zb0R-59" value="possui" style="rhombus;whiteSpace=wrap;html=1;" vertex="1" parent="1">
          <mxGeometry x="285" y="110" width="50" height="30" as="geometry" />
        </mxCell>
        <mxCell id="SqjKZSaL8NwDpM86Zb0R-60" value="" style="endArrow=none;html=1;rounded=0;entryX=0.5;entryY=1;entryDx=0;entryDy=0;exitX=0.5;exitY=0;exitDx=0;exitDy=0;" edge="1" parent="1" source="SqjKZSaL8NwDpM86Zb0R-30" target="SqjKZSaL8NwDpM86Zb0R-59">
          <mxGeometry width="50" height="50" relative="1" as="geometry">
            <mxPoint x="310" y="180" as="sourcePoint" />
            <mxPoint x="360" y="130" as="targetPoint" />
          </mxGeometry>
        </mxCell>
        <mxCell id="SqjKZSaL8NwDpM86Zb0R-61" value="" style="endArrow=none;html=1;rounded=0;entryX=0;entryY=0.5;entryDx=0;entryDy=0;exitX=1;exitY=0.5;exitDx=0;exitDy=0;" edge="1" parent="1" source="SqjKZSaL8NwDpM86Zb0R-59" target="SqjKZSaL8NwDpM86Zb0R-36">
          <mxGeometry width="50" height="50" relative="1" as="geometry">
            <mxPoint x="335" y="130" as="sourcePoint" />
            <mxPoint x="385" y="80" as="targetPoint" />
          </mxGeometry>
        </mxCell>
        <mxCell id="SqjKZSaL8NwDpM86Zb0R-62" value="" style="endArrow=none;html=1;rounded=0;entryX=0;entryY=0.5;entryDx=0;entryDy=0;exitX=1;exitY=0.5;exitDx=0;exitDy=0;" edge="1" parent="1" source="SqjKZSaL8NwDpM86Zb0R-59" target="SqjKZSaL8NwDpM86Zb0R-37">
          <mxGeometry width="50" height="50" relative="1" as="geometry">
            <mxPoint x="345" y="135" as="sourcePoint" />
            <mxPoint x="450" y="30" as="targetPoint" />
          </mxGeometry>
        </mxCell>
        <mxCell id="SqjKZSaL8NwDpM86Zb0R-63" value="" style="endArrow=none;html=1;rounded=0;entryX=0;entryY=0.5;entryDx=0;entryDy=0;exitX=1;exitY=0.5;exitDx=0;exitDy=0;" edge="1" parent="1" source="SqjKZSaL8NwDpM86Zb0R-59" target="SqjKZSaL8NwDpM86Zb0R-38">
          <mxGeometry width="50" height="50" relative="1" as="geometry">
            <mxPoint x="340" y="130" as="sourcePoint" />
            <mxPoint x="450" y="100" as="targetPoint" />
          </mxGeometry>
        </mxCell>
        <mxCell id="SqjKZSaL8NwDpM86Zb0R-64" value="" style="endArrow=none;html=1;rounded=0;entryX=0;entryY=0.5;entryDx=0;entryDy=0;exitX=1;exitY=0.5;exitDx=0;exitDy=0;" edge="1" parent="1" source="SqjKZSaL8NwDpM86Zb0R-59" target="SqjKZSaL8NwDpM86Zb0R-32">
          <mxGeometry width="50" height="50" relative="1" as="geometry">
            <mxPoint x="340" y="130" as="sourcePoint" />
            <mxPoint x="450" y="170" as="targetPoint" />
          </mxGeometry>
        </mxCell>
        <mxCell id="SqjKZSaL8NwDpM86Zb0R-65" value="n" style="text;html=1;align=center;verticalAlign=middle;whiteSpace=wrap;rounded=0;" vertex="1" parent="1">
          <mxGeometry x="285" y="145" width="60" height="30" as="geometry" />
        </mxCell>
        <mxCell id="SqjKZSaL8NwDpM86Zb0R-66" value="n" style="text;html=1;align=center;verticalAlign=middle;whiteSpace=wrap;rounded=0;" vertex="1" parent="1">
          <mxGeometry x="335" y="20" width="60" height="30" as="geometry" />
        </mxCell>
        <mxCell id="SqjKZSaL8NwDpM86Zb0R-68" value="n" style="text;html=1;align=center;verticalAlign=middle;whiteSpace=wrap;rounded=0;" vertex="1" parent="1">
          <mxGeometry x="394" y="70" width="60" height="30" as="geometry" />
        </mxCell>
        <mxCell id="SqjKZSaL8NwDpM86Zb0R-69" value="n" style="text;html=1;align=center;verticalAlign=middle;whiteSpace=wrap;rounded=0;" vertex="1" parent="1">
          <mxGeometry x="500" y="140" width="60" height="30" as="geometry" />
        </mxCell>
        <mxCell id="SqjKZSaL8NwDpM86Zb0R-70" value="n" style="text;html=1;align=center;verticalAlign=middle;whiteSpace=wrap;rounded=0;" vertex="1" parent="1">
          <mxGeometry x="430" y="220" width="80" height="40" as="geometry" />
        </mxCell>
        <mxCell id="SqjKZSaL8NwDpM86Zb0R-72" value="id" style="ellipse;whiteSpace=wrap;html=1;" vertex="1" parent="1">
          <mxGeometry x="580" y="-70" width="50" height="30" as="geometry" />
        </mxCell>
        <mxCell id="SqjKZSaL8NwDpM86Zb0R-73" value="nome" style="ellipse;whiteSpace=wrap;html=1;" vertex="1" parent="1">
          <mxGeometry x="623" y="-110" width="50" height="30" as="geometry" />
        </mxCell>
        <mxCell id="SqjKZSaL8NwDpM86Zb0R-74" value="modalidades" style="ellipse;whiteSpace=wrap;html=1;" vertex="1" parent="1">
          <mxGeometry x="660" y="-160" width="130" height="40" as="geometry" />
        </mxCell>
        <mxCell id="SqjKZSaL8NwDpM86Zb0R-75" value="" style="endArrow=none;html=1;rounded=0;entryX=1;entryY=0.5;entryDx=0;entryDy=0;exitX=0;exitY=0.5;exitDx=0;exitDy=0;" edge="1" parent="1" source="SqjKZSaL8NwDpM86Zb0R-72" target="SqjKZSaL8NwDpM86Zb0R-36">
          <mxGeometry width="50" height="50" relative="1" as="geometry">
            <mxPoint x="635" y="-10" as="sourcePoint" />
            <mxPoint x="683" y="-120" as="targetPoint" />
          </mxGeometry>
        </mxCell>
        <mxCell id="SqjKZSaL8NwDpM86Zb0R-76" value="" style="endArrow=none;html=1;rounded=0;exitX=0;exitY=0.5;exitDx=0;exitDy=0;entryX=1;entryY=0.5;entryDx=0;entryDy=0;" edge="1" parent="1" source="SqjKZSaL8NwDpM86Zb0R-73" target="SqjKZSaL8NwDpM86Zb0R-36">
          <mxGeometry width="50" height="50" relative="1" as="geometry">
            <mxPoint x="673" y="-50" as="sourcePoint" />
            <mxPoint x="570" y="-50" as="targetPoint" />
          </mxGeometry>
        </mxCell>
        <mxCell id="SqjKZSaL8NwDpM86Zb0R-77" value="" style="endArrow=none;html=1;rounded=0;exitX=0;exitY=0.5;exitDx=0;exitDy=0;entryX=1;entryY=0.5;entryDx=0;entryDy=0;" edge="1" parent="1" source="SqjKZSaL8NwDpM86Zb0R-74" target="SqjKZSaL8NwDpM86Zb0R-36">
          <mxGeometry width="50" height="50" relative="1" as="geometry">
            <mxPoint x="753" y="-80" as="sourcePoint" />
            <mxPoint x="683" y="-120" as="targetPoint" />
          </mxGeometry>
        </mxCell>
        <mxCell id="SqjKZSaL8NwDpM86Zb0R-78" value="idade" style="ellipse;whiteSpace=wrap;html=1;" vertex="1" parent="1">
          <mxGeometry x="580" y="-190" width="50" height="30" as="geometry" />
        </mxCell>
        <mxCell id="SqjKZSaL8NwDpM86Zb0R-79" value="id_time" style="ellipse;whiteSpace=wrap;html=1;" vertex="1" parent="1">
          <mxGeometry x="530" y="-210" width="50" height="30" as="geometry" />
        </mxCell>
        <mxCell id="SqjKZSaL8NwDpM86Zb0R-80" value="" style="endArrow=none;html=1;rounded=0;exitX=1;exitY=0.5;exitDx=0;exitDy=0;entryX=0.5;entryY=1;entryDx=0;entryDy=0;" edge="1" parent="1" source="SqjKZSaL8NwDpM86Zb0R-36" target="SqjKZSaL8NwDpM86Zb0R-79">
          <mxGeometry width="50" height="50" relative="1" as="geometry">
            <mxPoint x="560" y="-50" as="sourcePoint" />
            <mxPoint x="550" y="-160" as="targetPoint" />
          </mxGeometry>
        </mxCell>
        <mxCell id="SqjKZSaL8NwDpM86Zb0R-81" value="" style="endArrow=none;html=1;rounded=0;exitX=1;exitY=0.5;exitDx=0;exitDy=0;entryX=0.5;entryY=1;entryDx=0;entryDy=0;" edge="1" parent="1" source="SqjKZSaL8NwDpM86Zb0R-36" target="SqjKZSaL8NwDpM86Zb0R-78">
          <mxGeometry width="50" height="50" relative="1" as="geometry">
            <mxPoint x="570" y="-50" as="sourcePoint" />
            <mxPoint x="620" y="-100" as="targetPoint" />
          </mxGeometry>
        </mxCell>
        <mxCell id="SqjKZSaL8NwDpM86Zb0R-93" value="id" style="ellipse;whiteSpace=wrap;html=1;" vertex="1" parent="1">
          <mxGeometry x="620" y="90" width="50" height="30" as="geometry" />
        </mxCell>
        <mxCell id="SqjKZSaL8NwDpM86Zb0R-94" value="nome" style="ellipse;whiteSpace=wrap;html=1;" vertex="1" parent="1">
          <mxGeometry x="660" y="55" width="50" height="30" as="geometry" />
        </mxCell>
        <mxCell id="SqjKZSaL8NwDpM86Zb0R-95" value="modalidades" style="ellipse;whiteSpace=wrap;html=1;" vertex="1" parent="1">
          <mxGeometry x="675" y="15" width="130" height="40" as="geometry" />
        </mxCell>
        <mxCell id="SqjKZSaL8NwDpM86Zb0R-96" value="" style="endArrow=none;html=1;rounded=0;entryX=1;entryY=0.5;entryDx=0;entryDy=0;exitX=0.5;exitY=0;exitDx=0;exitDy=0;" edge="1" parent="1" source="SqjKZSaL8NwDpM86Zb0R-93">
          <mxGeometry width="50" height="50" relative="1" as="geometry">
            <mxPoint x="675" y="100" as="sourcePoint" />
            <mxPoint x="600" y="60" as="targetPoint" />
          </mxGeometry>
        </mxCell>
        <mxCell id="SqjKZSaL8NwDpM86Zb0R-97" value="" style="endArrow=none;html=1;rounded=0;exitX=0;exitY=0.5;exitDx=0;exitDy=0;entryX=1;entryY=0.5;entryDx=0;entryDy=0;" edge="1" parent="1" source="SqjKZSaL8NwDpM86Zb0R-94">
          <mxGeometry width="50" height="50" relative="1" as="geometry">
            <mxPoint x="713" y="60" as="sourcePoint" />
            <mxPoint x="600" y="60" as="targetPoint" />
          </mxGeometry>
        </mxCell>
        <mxCell id="SqjKZSaL8NwDpM86Zb0R-98" value="" style="endArrow=none;html=1;rounded=0;exitX=0;exitY=0.5;exitDx=0;exitDy=0;entryX=1;entryY=0.5;entryDx=0;entryDy=0;" edge="1" parent="1" source="SqjKZSaL8NwDpM86Zb0R-95">
          <mxGeometry width="50" height="50" relative="1" as="geometry">
            <mxPoint x="793" y="30" as="sourcePoint" />
            <mxPoint x="600" y="60" as="targetPoint" />
          </mxGeometry>
        </mxCell>
        <mxCell id="SqjKZSaL8NwDpM86Zb0R-99" value="idade" style="ellipse;whiteSpace=wrap;html=1;" vertex="1" parent="1">
          <mxGeometry x="640" y="-10" width="50" height="30" as="geometry" />
        </mxCell>
        <mxCell id="SqjKZSaL8NwDpM86Zb0R-101" value="" style="endArrow=none;html=1;rounded=0;" edge="1" parent="1" source="SqjKZSaL8NwDpM86Zb0R-100">
          <mxGeometry width="50" height="50" relative="1" as="geometry">
            <mxPoint x="600" y="60" as="sourcePoint" />
            <mxPoint x="620" y="-10" as="targetPoint" />
          </mxGeometry>
        </mxCell>
        <mxCell id="SqjKZSaL8NwDpM86Zb0R-102" value="" style="endArrow=none;html=1;rounded=0;exitX=1;exitY=0.5;exitDx=0;exitDy=0;entryX=0.5;entryY=1;entryDx=0;entryDy=0;" edge="1" parent="1" target="SqjKZSaL8NwDpM86Zb0R-99">
          <mxGeometry width="50" height="50" relative="1" as="geometry">
            <mxPoint x="600" y="60" as="sourcePoint" />
            <mxPoint x="660" y="10" as="targetPoint" />
          </mxGeometry>
        </mxCell>
        <mxCell id="SqjKZSaL8NwDpM86Zb0R-103" value="" style="endArrow=none;html=1;rounded=0;" edge="1" parent="1" target="SqjKZSaL8NwDpM86Zb0R-100">
          <mxGeometry width="50" height="50" relative="1" as="geometry">
            <mxPoint x="600" y="60" as="sourcePoint" />
            <mxPoint x="620" y="-10" as="targetPoint" />
          </mxGeometry>
        </mxCell>
        <mxCell id="SqjKZSaL8NwDpM86Zb0R-100" value="id_time" style="ellipse;whiteSpace=wrap;html=1;" vertex="1" parent="1">
          <mxGeometry x="593" y="-30" width="50" height="30" as="geometry" />
        </mxCell>
        <mxCell id="SqjKZSaL8NwDpM86Zb0R-104" value="id" style="ellipse;whiteSpace=wrap;html=1;" vertex="1" parent="1">
          <mxGeometry x="830" y="230" width="50" height="30" as="geometry" />
        </mxCell>
        <mxCell id="SqjKZSaL8NwDpM86Zb0R-105" value="nome" style="ellipse;whiteSpace=wrap;html=1;" vertex="1" parent="1">
          <mxGeometry x="873" y="190" width="50" height="30" as="geometry" />
        </mxCell>
        <mxCell id="SqjKZSaL8NwDpM86Zb0R-106" value="modalidades" style="ellipse;whiteSpace=wrap;html=1;" vertex="1" parent="1">
          <mxGeometry x="910" y="140" width="130" height="40" as="geometry" />
        </mxCell>
        <mxCell id="SqjKZSaL8NwDpM86Zb0R-107" value="" style="endArrow=none;html=1;rounded=0;entryX=1;entryY=0.5;entryDx=0;entryDy=0;" edge="1" parent="1">
          <mxGeometry width="50" height="50" relative="1" as="geometry">
            <mxPoint x="855" y="230" as="sourcePoint" />
            <mxPoint x="780" y="190" as="targetPoint" />
          </mxGeometry>
        </mxCell>
        <mxCell id="SqjKZSaL8NwDpM86Zb0R-108" value="" style="endArrow=none;html=1;rounded=0;exitX=0.5;exitY=0;exitDx=0;exitDy=0;entryX=1;entryY=0.5;entryDx=0;entryDy=0;" edge="1" parent="1" source="SqjKZSaL8NwDpM86Zb0R-105">
          <mxGeometry width="50" height="50" relative="1" as="geometry">
            <mxPoint x="893" y="190" as="sourcePoint" />
            <mxPoint x="780" y="190" as="targetPoint" />
          </mxGeometry>
        </mxCell>
        <mxCell id="SqjKZSaL8NwDpM86Zb0R-109" value="" style="endArrow=none;html=1;rounded=0;exitX=0;exitY=0.5;exitDx=0;exitDy=0;entryX=1;entryY=0.5;entryDx=0;entryDy=0;" edge="1" parent="1" source="SqjKZSaL8NwDpM86Zb0R-106">
          <mxGeometry width="50" height="50" relative="1" as="geometry">
            <mxPoint x="973" y="160" as="sourcePoint" />
            <mxPoint x="780" y="190" as="targetPoint" />
          </mxGeometry>
        </mxCell>
        <mxCell id="SqjKZSaL8NwDpM86Zb0R-110" value="idade" style="ellipse;whiteSpace=wrap;html=1;" vertex="1" parent="1">
          <mxGeometry x="830" y="110" width="50" height="30" as="geometry" />
        </mxCell>
        <mxCell id="SqjKZSaL8NwDpM86Zb0R-111" value="id_time" style="ellipse;whiteSpace=wrap;html=1;" vertex="1" parent="1">
          <mxGeometry x="780" y="90" width="50" height="30" as="geometry" />
        </mxCell>
        <mxCell id="SqjKZSaL8NwDpM86Zb0R-112" value="" style="endArrow=none;html=1;rounded=0;" edge="1" parent="1">
          <mxGeometry width="50" height="50" relative="1" as="geometry">
            <mxPoint x="780" y="190" as="sourcePoint" />
            <mxPoint x="800" y="120" as="targetPoint" />
          </mxGeometry>
        </mxCell>
        <mxCell id="SqjKZSaL8NwDpM86Zb0R-113" value="" style="endArrow=none;html=1;rounded=0;exitX=1;exitY=0.5;exitDx=0;exitDy=0;entryX=0.5;entryY=1;entryDx=0;entryDy=0;" edge="1" parent="1" target="SqjKZSaL8NwDpM86Zb0R-110">
          <mxGeometry width="50" height="50" relative="1" as="geometry">
            <mxPoint x="780" y="190" as="sourcePoint" />
            <mxPoint x="840" y="140" as="targetPoint" />
          </mxGeometry>
        </mxCell>
        <mxCell id="SqjKZSaL8NwDpM86Zb0R-114" value="id" style="ellipse;whiteSpace=wrap;html=1;" vertex="1" parent="1">
          <mxGeometry x="723" y="410" width="50" height="30" as="geometry" />
        </mxCell>
        <mxCell id="SqjKZSaL8NwDpM86Zb0R-115" value="nome" style="ellipse;whiteSpace=wrap;html=1;" vertex="1" parent="1">
          <mxGeometry x="766" y="370" width="50" height="30" as="geometry" />
        </mxCell>
        <mxCell id="SqjKZSaL8NwDpM86Zb0R-116" value="modalidades" style="ellipse;whiteSpace=wrap;html=1;" vertex="1" parent="1">
          <mxGeometry x="803" y="320" width="130" height="40" as="geometry" />
        </mxCell>
        <mxCell id="SqjKZSaL8NwDpM86Zb0R-117" value="" style="endArrow=none;html=1;rounded=0;entryX=1;entryY=0.5;entryDx=0;entryDy=0;" edge="1" parent="1">
          <mxGeometry width="50" height="50" relative="1" as="geometry">
            <mxPoint x="748" y="410" as="sourcePoint" />
            <mxPoint x="673" y="370" as="targetPoint" />
          </mxGeometry>
        </mxCell>
        <mxCell id="SqjKZSaL8NwDpM86Zb0R-118" value="" style="endArrow=none;html=1;rounded=0;exitX=0.5;exitY=0;exitDx=0;exitDy=0;entryX=1;entryY=0.5;entryDx=0;entryDy=0;" edge="1" parent="1" source="SqjKZSaL8NwDpM86Zb0R-115">
          <mxGeometry width="50" height="50" relative="1" as="geometry">
            <mxPoint x="786" y="370" as="sourcePoint" />
            <mxPoint x="673" y="370" as="targetPoint" />
          </mxGeometry>
        </mxCell>
        <mxCell id="SqjKZSaL8NwDpM86Zb0R-119" value="" style="endArrow=none;html=1;rounded=0;exitX=0;exitY=0.5;exitDx=0;exitDy=0;entryX=1;entryY=0.5;entryDx=0;entryDy=0;" edge="1" parent="1" source="SqjKZSaL8NwDpM86Zb0R-116">
          <mxGeometry width="50" height="50" relative="1" as="geometry">
            <mxPoint x="866" y="340" as="sourcePoint" />
            <mxPoint x="673" y="370" as="targetPoint" />
          </mxGeometry>
        </mxCell>
        <mxCell id="SqjKZSaL8NwDpM86Zb0R-120" value="idade" style="ellipse;whiteSpace=wrap;html=1;" vertex="1" parent="1">
          <mxGeometry x="723" y="290" width="50" height="30" as="geometry" />
        </mxCell>
        <mxCell id="SqjKZSaL8NwDpM86Zb0R-121" value="id_time" style="ellipse;whiteSpace=wrap;html=1;" vertex="1" parent="1">
          <mxGeometry x="673" y="270" width="50" height="30" as="geometry" />
        </mxCell>
        <mxCell id="SqjKZSaL8NwDpM86Zb0R-122" value="" style="endArrow=none;html=1;rounded=0;" edge="1" parent="1">
          <mxGeometry width="50" height="50" relative="1" as="geometry">
            <mxPoint x="673" y="370" as="sourcePoint" />
            <mxPoint x="693" y="300" as="targetPoint" />
          </mxGeometry>
        </mxCell>
        <mxCell id="SqjKZSaL8NwDpM86Zb0R-123" value="" style="endArrow=none;html=1;rounded=0;exitX=1;exitY=0.5;exitDx=0;exitDy=0;entryX=0.5;entryY=1;entryDx=0;entryDy=0;" edge="1" parent="1" target="SqjKZSaL8NwDpM86Zb0R-120">
          <mxGeometry width="50" height="50" relative="1" as="geometry">
            <mxPoint x="673" y="370" as="sourcePoint" />
            <mxPoint x="733" y="320" as="targetPoint" />
          </mxGeometry>
        </mxCell>
        <mxCell id="SqjKZSaL8NwDpM86Zb0R-124" value="" style="endArrow=none;html=1;rounded=0;exitX=0.5;exitY=0;exitDx=0;exitDy=0;" edge="1" parent="1" source="SqjKZSaL8NwDpM86Zb0R-59">
          <mxGeometry width="50" height="50" relative="1" as="geometry">
            <mxPoint x="240" y="75" as="sourcePoint" />
            <mxPoint x="290" y="25" as="targetPoint" />
          </mxGeometry>
        </mxCell>
        <mxCell id="SqjKZSaL8NwDpM86Zb0R-125" value="id_time1" style="ellipse;whiteSpace=wrap;html=1;" vertex="1" parent="1">
          <mxGeometry x="210" y="-160" width="60" height="30" as="geometry" />
        </mxCell>
        <mxCell id="SqjKZSaL8NwDpM86Zb0R-126" value="data" style="ellipse;whiteSpace=wrap;html=1;" vertex="1" parent="1">
          <mxGeometry x="160" y="-210" width="50" height="30" as="geometry" />
        </mxCell>
        <mxCell id="SqjKZSaL8NwDpM86Zb0R-127" value="modalidade" style="ellipse;whiteSpace=wrap;html=1;" vertex="1" parent="1">
          <mxGeometry x="50" y="-90" width="90" height="40" as="geometry" />
        </mxCell>
        <mxCell id="SqjKZSaL8NwDpM86Zb0R-129" value="" style="endArrow=none;html=1;rounded=0;exitX=0.5;exitY=1;exitDx=0;exitDy=0;entryX=0;entryY=0.75;entryDx=0;entryDy=0;" edge="1" parent="1" source="SqjKZSaL8NwDpM86Zb0R-126" target="SqjKZSaL8NwDpM86Zb0R-35">
          <mxGeometry width="50" height="50" relative="1" as="geometry">
            <mxPoint x="213" y="-240" as="sourcePoint" />
            <mxPoint x="100" y="-240" as="targetPoint" />
          </mxGeometry>
        </mxCell>
        <mxCell id="SqjKZSaL8NwDpM86Zb0R-130" value="" style="endArrow=none;html=1;rounded=0;exitX=0.5;exitY=1;exitDx=0;exitDy=0;entryX=0;entryY=0.75;entryDx=0;entryDy=0;" edge="1" parent="1" source="SqjKZSaL8NwDpM86Zb0R-127" target="SqjKZSaL8NwDpM86Zb0R-35">
          <mxGeometry width="50" height="50" relative="1" as="geometry">
            <mxPoint x="293" y="-270" as="sourcePoint" />
            <mxPoint x="100" y="-240" as="targetPoint" />
          </mxGeometry>
        </mxCell>
        <mxCell id="SqjKZSaL8NwDpM86Zb0R-131" value="resultado_time1" style="ellipse;whiteSpace=wrap;html=1;" vertex="1" parent="1">
          <mxGeometry x="230" y="-280" width="110" height="40" as="geometry" />
        </mxCell>
        <mxCell id="SqjKZSaL8NwDpM86Zb0R-133" value="" style="endArrow=none;html=1;rounded=0;exitX=0.5;exitY=0;exitDx=0;exitDy=0;entryX=0.5;entryY=1;entryDx=0;entryDy=0;" edge="1" parent="1" source="SqjKZSaL8NwDpM86Zb0R-35" target="SqjKZSaL8NwDpM86Zb0R-136">
          <mxGeometry width="50" height="50" relative="1" as="geometry">
            <mxPoint x="324" y="-30" as="sourcePoint" />
            <mxPoint x="344" y="-100" as="targetPoint" />
          </mxGeometry>
        </mxCell>
        <mxCell id="SqjKZSaL8NwDpM86Zb0R-134" value="" style="endArrow=none;html=1;rounded=0;exitX=0.5;exitY=0;exitDx=0;exitDy=0;entryX=0.5;entryY=1;entryDx=0;entryDy=0;" edge="1" parent="1" target="SqjKZSaL8NwDpM86Zb0R-131" source="SqjKZSaL8NwDpM86Zb0R-35">
          <mxGeometry width="50" height="50" relative="1" as="geometry">
            <mxPoint x="100" y="-240" as="sourcePoint" />
            <mxPoint x="160" y="-290" as="targetPoint" />
          </mxGeometry>
        </mxCell>
        <mxCell id="SqjKZSaL8NwDpM86Zb0R-136" value="id_time2" style="ellipse;whiteSpace=wrap;html=1;" vertex="1" parent="1">
          <mxGeometry x="310" y="-130" width="60" height="30" as="geometry" />
        </mxCell>
        <mxCell id="SqjKZSaL8NwDpM86Zb0R-137" value="id" style="ellipse;whiteSpace=wrap;html=1;" vertex="1" parent="1">
          <mxGeometry x="150" y="-120" width="50" height="30" as="geometry" />
        </mxCell>
        <mxCell id="SqjKZSaL8NwDpM86Zb0R-139" value="" style="endArrow=none;html=1;rounded=0;entryX=0.5;entryY=1;entryDx=0;entryDy=0;exitX=0;exitY=0.75;exitDx=0;exitDy=0;" edge="1" parent="1" source="SqjKZSaL8NwDpM86Zb0R-35" target="SqjKZSaL8NwDpM86Zb0R-137">
          <mxGeometry width="50" height="50" relative="1" as="geometry">
            <mxPoint x="242.5" y="-50" as="sourcePoint" />
            <mxPoint x="167.5" y="-90" as="targetPoint" />
          </mxGeometry>
        </mxCell>
        <mxCell id="SqjKZSaL8NwDpM86Zb0R-141" value="" style="endArrow=none;html=1;rounded=0;exitX=0.5;exitY=0;exitDx=0;exitDy=0;entryX=0.5;entryY=1;entryDx=0;entryDy=0;" edge="1" parent="1" source="SqjKZSaL8NwDpM86Zb0R-35" target="SqjKZSaL8NwDpM86Zb0R-125">
          <mxGeometry width="50" height="50" relative="1" as="geometry">
            <mxPoint x="220" y="-25" as="sourcePoint" />
            <mxPoint x="270" y="-110" as="targetPoint" />
          </mxGeometry>
        </mxCell>
        <mxCell id="SqjKZSaL8NwDpM86Zb0R-143" value="resultado_time2" style="ellipse;whiteSpace=wrap;html=1;" vertex="1" parent="1">
          <mxGeometry x="290" y="-240" width="110" height="40" as="geometry" />
        </mxCell>
        <mxCell id="SqjKZSaL8NwDpM86Zb0R-145" value="" style="endArrow=none;html=1;rounded=0;exitX=0.5;exitY=0;exitDx=0;exitDy=0;entryX=0;entryY=1;entryDx=0;entryDy=0;" edge="1" parent="1" source="SqjKZSaL8NwDpM86Zb0R-35" target="SqjKZSaL8NwDpM86Zb0R-143">
          <mxGeometry width="50" height="50" relative="1" as="geometry">
            <mxPoint x="290" y="-120" as="sourcePoint" />
            <mxPoint x="340" y="-170" as="targetPoint" />
          </mxGeometry>
        </mxCell>
        <mxCell id="SqjKZSaL8NwDpM86Zb0R-146" value="n" style="text;html=1;align=center;verticalAlign=middle;whiteSpace=wrap;rounded=0;" vertex="1" parent="1">
          <mxGeometry x="280" y="50" width="60" height="30" as="geometry" />
        </mxCell>
        <mxCell id="SqjKZSaL8NwDpM86Zb0R-147" value="id_destaques" style="ellipse;whiteSpace=wrap;html=1;" vertex="1" parent="1">
          <mxGeometry x="80" y="30" width="80" height="40" as="geometry" />
        </mxCell>
        <mxCell id="SqjKZSaL8NwDpM86Zb0R-148" value="nome" style="ellipse;whiteSpace=wrap;html=1;" vertex="1" parent="1">
          <mxGeometry x="-10" y="90" width="50" height="30" as="geometry" />
        </mxCell>
        <mxCell id="SqjKZSaL8NwDpM86Zb0R-149" value="id_time" style="ellipse;whiteSpace=wrap;html=1;" vertex="1" parent="1">
          <mxGeometry x="-60" y="130" width="50" height="30" as="geometry" />
        </mxCell>
        <mxCell id="SqjKZSaL8NwDpM86Zb0R-150" value="modalidade" style="ellipse;whiteSpace=wrap;html=1;" vertex="1" parent="1">
          <mxGeometry x="-50" y="30" width="90" height="40" as="geometry" />
        </mxCell>
        <mxCell id="SqjKZSaL8NwDpM86Zb0R-151" value="data" style="ellipse;whiteSpace=wrap;html=1;" vertex="1" parent="1">
          <mxGeometry x="40" y="140" width="50" height="30" as="geometry" />
        </mxCell>
        <mxCell id="SqjKZSaL8NwDpM86Zb0R-152" value="" style="endArrow=none;html=1;rounded=0;entryX=0;entryY=0.5;entryDx=0;entryDy=0;exitX=0.5;exitY=1;exitDx=0;exitDy=0;" edge="1" parent="1" source="SqjKZSaL8NwDpM86Zb0R-147" target="SqjKZSaL8NwDpM86Zb0R-34">
          <mxGeometry width="50" height="50" relative="1" as="geometry">
            <mxPoint x="70" y="170" as="sourcePoint" />
            <mxPoint x="120" y="120" as="targetPoint" />
          </mxGeometry>
        </mxCell>
        <mxCell id="SqjKZSaL8NwDpM86Zb0R-153" value="" style="endArrow=none;html=1;rounded=0;entryX=0;entryY=0.5;entryDx=0;entryDy=0;exitX=1;exitY=0.5;exitDx=0;exitDy=0;" edge="1" parent="1" source="SqjKZSaL8NwDpM86Zb0R-150" target="SqjKZSaL8NwDpM86Zb0R-34">
          <mxGeometry width="50" height="50" relative="1" as="geometry">
            <mxPoint x="37.5" y="65" as="sourcePoint" />
            <mxPoint x="52.5" y="120" as="targetPoint" />
          </mxGeometry>
        </mxCell>
        <mxCell id="SqjKZSaL8NwDpM86Zb0R-154" value="" style="endArrow=none;html=1;rounded=0;exitX=1;exitY=0.5;exitDx=0;exitDy=0;entryX=0;entryY=0.5;entryDx=0;entryDy=0;" edge="1" parent="1" source="SqjKZSaL8NwDpM86Zb0R-148" target="SqjKZSaL8NwDpM86Zb0R-34">
          <mxGeometry width="50" height="50" relative="1" as="geometry">
            <mxPoint x="87.5" y="105" as="sourcePoint" />
            <mxPoint x="140" y="120" as="targetPoint" />
          </mxGeometry>
        </mxCell>
        <mxCell id="SqjKZSaL8NwDpM86Zb0R-155" value="" style="endArrow=none;html=1;rounded=0;exitX=1;exitY=0.5;exitDx=0;exitDy=0;entryX=0;entryY=0.5;entryDx=0;entryDy=0;" edge="1" parent="1" source="SqjKZSaL8NwDpM86Zb0R-149" target="SqjKZSaL8NwDpM86Zb0R-34">
          <mxGeometry width="50" height="50" relative="1" as="geometry">
            <mxPoint x="410" y="70" as="sourcePoint" />
            <mxPoint x="460" y="20" as="targetPoint" />
          </mxGeometry>
        </mxCell>
        <mxCell id="SqjKZSaL8NwDpM86Zb0R-156" value="" style="endArrow=none;html=1;rounded=0;entryX=0;entryY=0.5;entryDx=0;entryDy=0;exitX=1;exitY=0.5;exitDx=0;exitDy=0;" edge="1" parent="1" source="SqjKZSaL8NwDpM86Zb0R-151" target="SqjKZSaL8NwDpM86Zb0R-34">
          <mxGeometry width="50" height="50" relative="1" as="geometry">
            <mxPoint x="80" y="195" as="sourcePoint" />
            <mxPoint x="130" y="145" as="targetPoint" />
          </mxGeometry>
        </mxCell>
        <mxCell id="SqjKZSaL8NwDpM86Zb0R-160" value="" style="endArrow=none;html=1;rounded=0;entryX=0;entryY=0.5;entryDx=0;entryDy=0;exitX=1;exitY=0.5;exitDx=0;exitDy=0;" edge="1" parent="1" source="SqjKZSaL8NwDpM86Zb0R-34" target="SqjKZSaL8NwDpM86Zb0R-59">
          <mxGeometry width="50" height="50" relative="1" as="geometry">
            <mxPoint x="210" y="95" as="sourcePoint" />
            <mxPoint x="260" y="45" as="targetPoint" />
          </mxGeometry>
        </mxCell>
        <mxCell id="SqjKZSaL8NwDpM86Zb0R-161" value="n" style="text;html=1;align=center;verticalAlign=middle;whiteSpace=wrap;rounded=0;" vertex="1" parent="1">
          <mxGeometry x="230" y="100" width="30" height="30" as="geometry" />
        </mxCell>
      </root>
    </mxGraphModel>
  </diagram>
</mxfile>
